<?xml version="1.0" standalone="no"?>
<!DOCTYPE svg PUBLIC "-//W3C//DTD SVG 20010904//EN"
 "http://www.w3.org/TR/2001/REC-SVG-20010904/DTD/svg10.dtd">
<svg version="1.0" xmlns="http://www.w3.org/2000/svg"
 width="24.000000" height="24.000000" viewBox="0 0 300.000000 160.000000"
 preserveAspectRatio="xMidYMid meet">
<metadata>
Created by potrace 1.16, written by Peter Selinger 2001-2019
</metadata>
<g transform="translate(0.000000,160.000000) scale(0.100000,-0.100000)"
fill="#ffffff" stroke="none">
<path d="M642 1500 c-127 -23 -259 -84 -345 -160 l-48 -42 58 -42 c115 -84
108 -81 145 -53 132 99 328 129 485 74 178 -62 326 -233 350 -404 l6 -43 -622
0 -621 0 0 -112 c0 -90 5 -126 23 -178 38 -111 94 -199 181 -285 203 -200 493
-264 761 -168 114 41 175 81 270 177 98 99 142 169 181 291 30 94 48 94 78 0
54 -168 166 -315 306 -400 398 -242 898 -76 1078 357 22 54 27 81 30 191 l4
127 -621 0 -621 0 0 30 c0 49 44 154 95 225 112 157 311 244 495 216 89 -14
167 -43 231 -87 58 -40 45 -43 161 42 l58 42 -44 39 c-171 149 -431 208 -661
148 -85 -22 -210 -86 -281 -144 -116 -94 -219 -264 -244 -401 -7 -36 -16 -74
-20 -85 -7 -18 -8 -17 -14 10 -22 107 -41 169 -70 230 -90 189 -254 327 -456
385 -86 24 -247 34 -328 20z m624 -884 c10 -26 -65 -152 -127 -214 -160 -160
-406 -199 -615 -97 -101 50 -213 173 -249 275 -7 21 -11 41 -8 44 4 3 228 6
500 6 421 0 494 -2 499 -14z m1478 6 c11 -17 -62 -148 -113 -204 -100 -110
-233 -168 -384 -168 -151 0 -275 50 -377 151 -59 60 -136 189 -126 215 5 12
78 14 500 14 272 0 497 -4 500 -8z"/>
</g>

</svg>
